<mxfile host="Electron" modified="2024-04-23T23:19:38.615Z" agent="Mozilla/5.0 (Windows NT 10.0; Win64; x64) AppleWebKit/537.36 (KHTML, like Gecko) draw.io/24.0.4 Chrome/120.0.6099.109 Electron/28.1.0 Safari/537.36" etag="TKWbv3orMcVmEDJe401y" version="24.0.4" type="device">
  <diagram name="Page-1" id="PlogBAuquy3NyxP3YzZk">
    <mxGraphModel dx="1956" dy="2373" grid="0" gridSize="10" guides="1" tooltips="1" connect="1" arrows="1" fold="1" page="1" pageScale="1" pageWidth="827" pageHeight="1169" math="0" shadow="0">
      <root>
        <mxCell id="0" />
        <mxCell id="1" parent="0" />
        <mxCell id="7Se4oC-TnPz3JseUxT82-1" value="&lt;span style=&quot;background-color: initial;&quot;&gt;Add A New Book Activity Diagram&lt;/span&gt;" style="text;html=1;align=center;verticalAlign=middle;resizable=0;points=[];autosize=1;strokeColor=none;fillColor=none;fontSize=25;" parent="1" vertex="1">
          <mxGeometry x="219" y="-990" width="390" height="42" as="geometry" />
        </mxCell>
        <mxCell id="7Se4oC-TnPz3JseUxT82-3" style="edgeStyle=orthogonalEdgeStyle;rounded=0;orthogonalLoop=1;jettySize=auto;html=1;exitX=0.5;exitY=1;exitDx=0;exitDy=0;entryX=0.5;entryY=0;entryDx=0;entryDy=0;" parent="1" source="7Se4oC-TnPz3JseUxT82-4" target="7Se4oC-TnPz3JseUxT82-38" edge="1">
          <mxGeometry relative="1" as="geometry">
            <mxPoint x="415" y="-726" as="targetPoint" />
          </mxGeometry>
        </mxCell>
        <mxCell id="7Se4oC-TnPz3JseUxT82-4" value="" style="ellipse;whiteSpace=wrap;html=1;aspect=fixed;fillColor=#000000;container=0;" parent="1" vertex="1">
          <mxGeometry x="397.0258449304175" y="-885.9751381215469" width="37.7972166998012" height="37.7972166998012" as="geometry" />
        </mxCell>
        <mxCell id="7Se4oC-TnPz3JseUxT82-21" value="" style="group" parent="1" vertex="1" connectable="0">
          <mxGeometry x="97.3479125248509" y="-888" width="272.67992047713716" height="41.84714548802947" as="geometry" />
        </mxCell>
        <mxCell id="7Se4oC-TnPz3JseUxT82-22" value="" style="endArrow=classic;html=1;rounded=0;jumpSize=20;strokeWidth=2;" parent="7Se4oC-TnPz3JseUxT82-21" edge="1">
          <mxGeometry width="50" height="50" relative="1" as="geometry">
            <mxPoint x="105.29224652087474" y="19.96513812154691" as="sourcePoint" />
            <mxPoint x="272.67992047713716" y="19.96513812154691" as="targetPoint" />
          </mxGeometry>
        </mxCell>
        <mxCell id="7Se4oC-TnPz3JseUxT82-23" value="Start" style="text;html=1;align=center;verticalAlign=middle;resizable=0;points=[];autosize=1;strokeColor=none;fillColor=none;container=0;fontSize=16;" parent="7Se4oC-TnPz3JseUxT82-21" vertex="1">
          <mxGeometry width="52" height="31" as="geometry" />
        </mxCell>
        <mxCell id="7Se4oC-TnPz3JseUxT82-46" style="edgeStyle=orthogonalEdgeStyle;rounded=0;orthogonalLoop=1;jettySize=auto;html=1;exitX=0.5;exitY=1;exitDx=0;exitDy=0;entryX=0.5;entryY=0;entryDx=0;entryDy=0;" parent="1" source="7Se4oC-TnPz3JseUxT82-38" target="7Se4oC-TnPz3JseUxT82-45" edge="1">
          <mxGeometry relative="1" as="geometry" />
        </mxCell>
        <mxCell id="7Se4oC-TnPz3JseUxT82-38" value="Collect Book Info {title, author, category, ...etc}" style="rounded=1;whiteSpace=wrap;html=1;" parent="1" vertex="1">
          <mxGeometry x="358" y="-708" width="120" height="60" as="geometry" />
        </mxCell>
        <mxCell id="7Se4oC-TnPz3JseUxT82-44" value="" style="group" parent="1" vertex="1" connectable="0">
          <mxGeometry x="101.39761431411532" y="-102.84714548802947" width="333.4254473161034" height="41.84714548802947" as="geometry" />
        </mxCell>
        <mxCell id="7Se4oC-TnPz3JseUxT82-12" value="" style="group" parent="7Se4oC-TnPz3JseUxT82-44" vertex="1" connectable="0">
          <mxGeometry x="295.6282306163022" y="-183.97513812154693" width="37.7972166998012" height="37.797421731123386" as="geometry" />
        </mxCell>
        <mxCell id="7Se4oC-TnPz3JseUxT82-13" value="" style="ellipse;whiteSpace=wrap;html=1;aspect=fixed;fillColor=none;container=0;strokeWidth=0.5;" parent="7Se4oC-TnPz3JseUxT82-12" vertex="1">
          <mxGeometry width="37.7972166998012" height="37.7972166998012" as="geometry" />
        </mxCell>
        <mxCell id="7Se4oC-TnPz3JseUxT82-14" value="" style="ellipse;whiteSpace=wrap;html=1;aspect=fixed;fillColor=#000000;container=0;" parent="7Se4oC-TnPz3JseUxT82-12" vertex="1">
          <mxGeometry x="4.0497017892644145" y="4.0497237569060776" width="29.69781312127237" height="29.69781312127237" as="geometry" />
        </mxCell>
        <mxCell id="7Se4oC-TnPz3JseUxT82-24" value="" style="group" parent="7Se4oC-TnPz3JseUxT82-44" vertex="1" connectable="0">
          <mxGeometry width="268.63021868787274" height="41.84714548802947" as="geometry" />
        </mxCell>
        <mxCell id="7Se4oC-TnPz3JseUxT82-25" value="" style="endArrow=classic;html=1;rounded=0;jumpSize=20;strokeWidth=2;" parent="7Se4oC-TnPz3JseUxT82-24" edge="1">
          <mxGeometry width="50" height="50" relative="1" as="geometry">
            <mxPoint x="101.24254473161032" y="-166.03486187845309" as="sourcePoint" />
            <mxPoint x="268.63021868787274" y="-166.03486187845309" as="targetPoint" />
          </mxGeometry>
        </mxCell>
        <mxCell id="7Se4oC-TnPz3JseUxT82-26" value="End" style="text;html=1;align=center;verticalAlign=middle;resizable=0;points=[];autosize=1;strokeColor=none;fillColor=none;container=0;fontSize=16;" parent="7Se4oC-TnPz3JseUxT82-24" vertex="1">
          <mxGeometry y="-186" width="46" height="31" as="geometry" />
        </mxCell>
        <mxCell id="7Se4oC-TnPz3JseUxT82-47" style="edgeStyle=orthogonalEdgeStyle;rounded=0;orthogonalLoop=1;jettySize=auto;html=1;exitX=0.5;exitY=1;exitDx=0;exitDy=0;entryX=0.5;entryY=0;entryDx=0;entryDy=0;" parent="1" source="7Se4oC-TnPz3JseUxT82-45" target="7Se4oC-TnPz3JseUxT82-13" edge="1">
          <mxGeometry relative="1" as="geometry" />
        </mxCell>
        <mxCell id="7Se4oC-TnPz3JseUxT82-45" value="Insert into the Books Data Store" style="rounded=1;whiteSpace=wrap;html=1;" parent="1" vertex="1">
          <mxGeometry x="355.92" y="-508" width="120" height="60" as="geometry" />
        </mxCell>
      </root>
    </mxGraphModel>
  </diagram>
</mxfile>
